<svg width="32" height="32" viewBox="0 0 32 32" fill="none" xmlns="http://www.w3.org/2000/svg">
<path d="M16.1821 28.6764C15.7808 28.6764 15.3925 28.6246 15.0689 28.5081C10.1242 26.8124 2.26709 20.7934 2.26709 11.9007C2.26709 7.37025 5.9303 3.69409 10.4349 3.69409C12.6225 3.69409 14.6676 4.54841 16.1821 6.07583C17.6966 4.54841 19.7418 3.69409 21.9293 3.69409C26.4339 3.69409 30.0971 7.38319 30.0971 11.9007C30.0971 20.8063 22.24 26.8124 17.2953 28.5081C16.9717 28.6246 16.5834 28.6764 16.1821 28.6764ZM10.4349 5.63572C7.00467 5.63572 4.20872 8.44461 4.20872 11.9007C4.20872 20.7416 12.7131 25.6604 15.7032 26.683C15.9362 26.7607 16.441 26.7607 16.674 26.683C19.6512 25.6604 28.1684 20.7546 28.1684 11.9007C28.1684 8.44461 25.3725 5.63572 21.9423 5.63572C19.9748 5.63572 18.1496 6.55476 16.9717 8.1469C16.6093 8.63878 15.7808 8.63878 15.4184 8.1469C14.2146 6.54182 12.4024 5.63572 10.4349 5.63572Z" fill="white"/>
</svg>
