<svg width="46" height="45" viewBox="0 0 46 45" fill="none" xmlns="http://www.w3.org/2000/svg">
<path d="M39.5564 15.0188L27.2752 5.19378C24.8752 3.28128 21.1252 3.26253 18.7439 5.17503L6.46267 15.0188C4.70017 16.425 3.63142 19.2375 4.00642 21.45L6.36892 35.5875C6.91267 38.7563 9.85642 41.25 13.0627 41.25H32.9377C36.1064 41.25 39.1064 38.7 39.6502 35.5688L42.0127 21.4313C42.3502 19.2375 41.2814 16.425 39.5564 15.0188ZM24.4064 33.75C24.4064 34.5188 23.7689 35.1563 23.0002 35.1563C22.2314 35.1563 21.5939 34.5188 21.5939 33.75V28.125C21.5939 27.3563 22.2314 26.7188 23.0002 26.7188C23.7689 26.7188 24.4064 27.3563 24.4064 28.125V33.75Z" fill="#A8A8A8"/>
</svg>
