<svg width="45" height="45" viewBox="0 0 45 45" fill="none" xmlns="http://www.w3.org/2000/svg">
<path d="M40.3125 20.4375V7.6875C40.3125 4.875 39.1125 3.75 36.1313 3.75H28.5562C25.575 3.75 24.375 4.875 24.375 7.6875V20.4375C24.375 23.25 25.575 24.375 28.5562 24.375H36.1313C39.1125 24.375 40.3125 23.25 40.3125 20.4375Z" fill="#A8A8A8"/>
<path d="M20.625 24.5625V37.3125C20.625 40.125 19.425 41.25 16.4438 41.25H8.86875C5.8875 41.25 4.6875 40.125 4.6875 37.3125V24.5625C4.6875 21.75 5.8875 20.625 8.86875 20.625H16.4438C19.425 20.625 20.625 21.75 20.625 24.5625Z" fill="#A8A8A8"/>
<path d="M40.3125 37.3125V32.0625C40.3125 29.25 39.1125 28.125 36.1313 28.125H28.5562C25.575 28.125 24.375 29.25 24.375 32.0625V37.3125C24.375 40.125 25.575 41.25 28.5562 41.25H36.1313C39.1125 41.25 40.3125 40.125 40.3125 37.3125Z" fill="#A8A8A8"/>
<path d="M20.625 12.9375V7.6875C20.625 4.875 19.425 3.75 16.4438 3.75H8.86875C5.8875 3.75 4.6875 4.875 4.6875 7.6875V12.9375C4.6875 15.75 5.8875 16.875 8.86875 16.875H16.4438C19.425 16.875 20.625 15.75 20.625 12.9375Z" fill="#A8A8A8"/>
</svg>
