<svg width="45" height="45" viewBox="0 0 45 45" fill="none" xmlns="http://www.w3.org/2000/svg">
<path d="M37.6875 17.2874C34.2938 17.2874 32.9063 14.8874 34.5938 11.9437C35.5688 10.2374 34.9875 8.06244 33.2812 7.08744L30.0375 5.23119C28.5563 4.34994 26.6437 4.87494 25.7625 6.35619L25.5562 6.71244C23.8687 9.65619 21.0938 9.65619 19.3875 6.71244L19.1812 6.35619C18.3375 4.87494 16.425 4.34994 14.9437 5.23119L11.7 7.08744C9.99375 8.06244 9.4125 10.2562 10.3875 11.9624C12.0938 14.8874 10.7063 17.2874 7.3125 17.2874C5.3625 17.2874 3.75 18.8812 3.75 20.8499V24.1499C3.75 26.0999 5.34375 27.7124 7.3125 27.7124C10.7063 27.7124 12.0938 30.1124 10.3875 33.0562C9.4125 34.7624 9.99375 36.9374 11.7 37.9124L14.9437 39.7687C16.425 40.6499 18.3375 40.1249 19.2188 38.6437L19.425 38.2874C21.1125 35.3437 23.8875 35.3437 25.5938 38.2874L25.8 38.6437C26.6812 40.1249 28.5938 40.6499 30.075 39.7687L33.3188 37.9124C35.025 36.9374 35.6062 34.7437 34.6312 33.0562C32.925 30.1124 34.3125 27.7124 37.7063 27.7124C39.6562 27.7124 41.2687 26.1187 41.2687 24.1499V20.8499C41.25 18.8999 39.6562 17.2874 37.6875 17.2874ZM22.5 28.5937C19.1438 28.5937 16.4062 25.8562 16.4062 22.4999C16.4062 19.1437 19.1438 16.4062 22.5 16.4062C25.8563 16.4062 28.5938 19.1437 28.5938 22.4999C28.5938 25.8562 25.8563 28.5937 22.5 28.5937Z" fill="#A8A8A8"/>
</svg>
